PathFileType	4	(X/Y/Z)	C:\Users\WrightLab\Desktop\Jo\P4V129.trc
DataRate	CameraRate	NumFrames	NumMarkers	Units	OrigDataRate	OrigDataStartFrame	OrigNumFrames
100.00	100.00	       20	19	mm	100.00	58	       456
Frame#	Time	Headset_Front			Headset_Back			Headset_Left			Headset_Right			Left_Shoulder			Right_Shoulder			Sternum			C7			Left Elbow			Right Elbow			Left Wrist			Right Wrist			Left ASIS			Right ASIS			S2			Left Knee			Right Knee			Left Ankle			Right Ankle			
		X1	Y1	Z1	X2	Y2	Z2	X3	Y3	Z3	X4	Y4	Z4	X5	Y5	Z5	X6	Y6	Z6	X7	Y7	Z7	X8	Y8	Z8	X9	Y9	Z9	X10	Y10	Z10	X11	Y11	Z11	X12	Y12	Z12	X13	Y13	Z13	X14	Y14	Z14	X15	Y15	Z15	X16	Y16	Z16	X17	Y17	Z17	X18	Y18	Z18	X19	Y19	Z19	

58	0.570	78.83927	1080.10327	1908.35828	6.69395	1036.37988	1691.51868							-16.05932	1550.00537	1766.05591	262.89023	1554.54651	1831.80688	-15.76742	1723.59497	1746.26208	112.47798	1587.16772	1847.47168	-258.35434	1484.28723	1549.65491	526.63690	977.66010	1694.87378	-311.76871	1531.06946	1242.34619	446.26608	1222.56384	1858.70996				323.94913	1052.47339	1795.84937				73.27382	576.33344	1615.55090	274.89252	583.24390	1940.46936	189.81723	84.68789	1531.33838	148.99854	127.72325	2135.78247	
59	0.580	81.08533	1078.09851	1898.25989	10.28976	1034.87708	1681.49292							-14.40649	1548.56567	1758.33557	264.42258	1553.56165	1822.91077	-15.04366	1721.74756	1737.01746	114.06982	1585.33484	1838.07300	-257.20190	1481.31226	1541.82153	528.90198	978.12354	1682.38940	-313.32272	1528.25684	1234.82739	448.74246	1221.71277	1848.19421				326.69760	1052.51318	1786.75439				75.71623	575.91406	1604.75232	279.48358	582.10870	1932.02612	193.34384	83.02859	1521.00586	149.85626	130.22447	2134.63037	
60	0.590	85.33311	1076.50122	1888.77869	11.68321	1032.81030	1671.34985							-13.48939	1546.62463	1749.37830	265.84030	1552.46716	1813.86353	-14.91475	1720.74304	1728.72302	115.84909	1584.05237	1829.10132	-257.87814	1478.88623	1535.32336	531.39233	977.21857	1671.59644	-313.48639	1525.29480	1228.50403	451.01636	1220.62195	1836.37537				329.86514	1050.82971	1776.00037				78.28772	575.49866	1592.93933	283.35980	581.45178	1922.79053	196.03027	81.69288	1513.89600	151.24811	132.59103	2132.48315	
61	0.600	87.99022	1074.86340	1878.04736	13.77823	1031.96521	1663.81335							-11.89967	1545.23889	1739.19336	267.33627	1551.30359	1803.14539	-13.82890	1719.01660	1720.08167	117.10418	1583.41553	1820.61182	-257.52966	1476.04138	1527.81494	533.67969	977.66418	1659.38281				453.32013	1220.65393	1824.71619				332.38132	1050.29175	1763.85388				80.90214	575.24084	1581.01636	288.17960	582.24762	1913.47900	196.22993	79.82948	1509.96155	152.28662	136.20525	2131.46338	
62	0.610	91.22326	1074.75952	1869.74866	16.91207	1032.47083	1652.73486							-11.45379	1543.75439	1731.85059	268.17792	1551.03748	1793.14941	-13.14674	1717.77405	1712.12024	118.30681	1582.38000	1810.46875	-257.64334	1474.00098	1520.40320	535.57300	977.99475	1646.58679	-315.91782	1519.66382	1214.73218	455.93665	1219.78479	1812.71814				334.84058	1049.99048	1752.05518				83.19559	575.07495	1569.38647	292.38507	582.40021	1903.26367	198.30174	79.32735	1507.75623	153.75722	140.02550	2129.49585	
63	0.620	94.77465	1072.69092	1857.76855	17.83297	1030.95313	1643.38696							-11.27628	1542.70496	1723.95056	269.12402	1550.45691	1782.96765	-13.00120	1717.09595	1703.49255	118.65529	1581.65723	1801.73425	-257.74777	1471.87305	1513.03088	537.41010	978.63074	1634.65308	-316.64685	1517.72913	1208.10132	456.84427	1220.04749	1801.78308				337.34427	1049.84863	1740.33203				85.76827	574.85333	1557.46033	297.07028	582.80811	1892.55139	199.35786	79.96463	1506.46704	154.97562	144.66470	2127.24951	
64	0.630	97.73722	1072.50574	1846.85181	20.82822	1032.14233	1629.87903							-10.64602	1541.43677	1715.20789	270.05191	1550.04016	1772.31812	-12.85858	1716.49133	1694.31079	119.98017	1580.41846	1791.43445	-258.41110	1469.94177	1506.18738	539.08698	978.52814	1622.88428	-317.70297	1514.88855	1198.52136	458.86136	1219.93188	1789.66785				340.04865	1049.04871	1727.59253				88.10666	574.43640	1545.85486	302.24976	582.56732	1881.22021	201.86102	81.15639	1504.49316	157.08624	148.95462	2123.98877	
65	0.640	101.33762	1071.71301	1837.45044	22.59148	1032.50537	1620.51221							-10.93836	1541.27576	1706.97791	270.64209	1550.23706	1762.36450	-13.09737	1716.03723	1685.46545	120.44555	1580.43799	1782.64221	-258.61835	1467.25769	1498.16394	541.41815	979.44702	1610.06287	-318.87491	1513.27576	1193.54761	460.77612	1220.59351	1777.39893				342.46692	1049.10547	1714.86145				89.87264	573.76257	1535.01953	307.76151	583.12653	1869.47571	203.86760	82.91839	1502.38794	158.60980	154.67522	2120.89307	
66	0.650	103.32055	1071.57288	1824.79395	24.85433	1032.71423	1609.63989							-10.18398	1540.20728	1697.37097	271.36053	1549.91040	1751.91809	-12.83673	1715.76270	1675.46838	121.16183	1580.27136	1773.41211	-259.29205	1465.26050	1490.53735	542.08289	980.86682	1597.14514	-320.60538	1509.86353	1185.16907	461.74426	1220.66992	1765.89819				344.50238	1049.95105	1703.25598				91.58091	573.25525	1525.08350	313.59378	584.12469	1857.31348	205.91797	84.75443	1499.30359	160.67375	160.44885	2117.07690	
67	0.660	106.27104	1071.21985	1813.37341	26.09387	1034.05945	1594.62903							-9.98685	1539.95837	1688.33362	271.80887	1550.61926	1741.89050	-13.16044	1716.68201	1666.43982	121.44603	1581.06555	1764.74170	-259.62680	1462.96460	1482.39612	543.19727	982.16241	1583.54712	-322.34500	1508.01758	1178.90161	463.13269	1221.39282	1753.02063				346.68515	1050.62305	1689.98267				92.94244	572.01782	1514.42639	319.44720	584.62573	1842.30481	205.90399	85.46687	1497.06445	163.52116	167.19508	2111.79053	
68	0.670	108.55161	1072.11096	1801.96704	27.89073	1034.79846	1584.25391							-9.82542	1539.92236	1680.13403	272.24759	1551.17639	1732.41357	-13.20500	1716.61121	1656.91602	121.88933	1581.32495	1755.21387	-260.37445	1462.01208	1474.76550	544.26068	983.41406	1572.21240	-323.91977	1504.40344	1168.82458	464.26489	1222.77759	1740.78259				348.97690	1051.46155	1677.26208				94.13851	570.98419	1504.42517	326.26703	586.14215	1828.71997	207.58125	86.12769	1494.93665	167.31435	173.55113	2104.01123	
69	0.680	110.43067	1073.21118	1789.81738	28.85345	1035.60693	1575.97095							-10.24249	1540.00195	1672.09509	272.97662	1551.73413	1721.37793	-13.51898	1717.85071	1648.28284	121.99551	1581.97327	1746.33032	-261.27158	1460.34277	1467.03918	544.37073	985.30829	1558.91089	-325.06122	1502.76257	1163.91602	464.93674	1224.83301	1729.25525				350.63425	1052.82166	1664.68481				95.08945	569.94696	1498.13257	333.28281	585.38556	1811.31067	209.36617	85.91640	1493.26489	169.92015	182.08096	2097.72290	
70	0.690	112.75092	1074.11841	1778.08057	29.78344	1036.41663	1565.11633							-10.45133	1541.03369	1663.37000	272.84995	1553.55945	1712.27979				122.62668	1582.45593	1736.39587	-261.86530	1458.34302	1459.65454	545.27063	986.88239	1546.00610	-327.08359	1499.43262	1154.00916	466.22202	1225.19617	1716.32874				351.88901	1053.57434	1650.20374				95.95938	570.25726	1489.08362	341.45816	585.70264	1794.83606	207.10272	88.52959	1491.25891	173.25285	190.93033	2088.46313	
71	0.700	115.20612	1075.19385	1767.13782	30.03753	1038.81079	1550.69421							-9.72179	1540.59912	1653.33777	272.72751	1554.51392	1703.02295				122.25143	1583.61047	1727.61560	-262.33896	1457.52490	1451.81982	546.06592	988.97931	1533.46790	-328.57007	1498.39758	1147.40881	466.60452	1227.04822	1703.99670				352.79770	1055.16296	1638.05261				97.23286	570.72858	1480.30286	349.34845	584.39874	1773.65430	207.32265	88.09732	1489.63196	177.33330	200.86751	2078.87231	
72	0.710	117.05589	1076.32446	1756.47839	30.26529	1039.52332	1540.79468							-10.65118	1541.49634	1646.57800	273.70245	1555.36890	1691.32971				123.29813	1583.96252	1716.83887	-263.06903	1456.03235	1444.63416	546.01587	990.52637	1519.79321	-329.94351	1498.01880	1140.57581	467.37585	1228.75793	1691.40259				353.36407	1056.16064	1623.72131				98.72546	571.85254	1472.65173	356.95609	585.90082	1756.30750	207.61523	88.14043	1488.35449	181.38031	211.95805	2067.95068	
73	0.720	119.17937	1076.27173	1743.94446	29.87229	1041.56995	1530.64661							-10.20946	1541.81543	1636.95129	273.40350	1557.23157	1682.25525				123.02116	1584.99597	1707.85107	-264.00342	1454.29626	1437.50012	546.32550	993.10083	1506.18860	-332.76755	1495.65613	1132.12256	468.17142	1230.50366	1679.38782				353.87415	1056.58264	1611.66296				99.52010	572.40942	1464.69482	366.86111	584.18964	1734.10352	207.99576	88.05695	1487.30676	186.27405	223.36699	2054.17773	
74	0.730	119.79234	1077.29553	1735.82642	29.50552	1042.95667	1520.18445							-9.97485	1542.06738	1628.45679	273.71603	1558.25317	1672.21875				123.80135	1585.24316	1697.55884	-264.15280	1453.44458	1429.13806	546.76556	994.90839	1492.45911	-334.57031	1493.29004	1124.87354	469.47534	1231.94360	1666.43604				354.73941	1057.57983	1600.71997				99.32365	572.87903	1456.33215	375.74683	584.05646	1712.66418	207.30646	88.66337	1486.46167	190.93321	236.17712	2040.90967	
75	0.740	121.50695	1077.85925	1724.38171	29.07228	1043.46338	1511.19983							-10.13200	1542.31592	1620.01208	274.49893	1559.81116	1662.24268				124.32355	1585.73474	1688.24597	-264.87936	1452.06946	1421.86768	546.78595	997.70355	1477.64490	-335.95517	1492.48950	1119.58740	469.82040	1234.10522	1657.12915				354.54135	1058.35938	1587.14502				98.88882	572.70819	1447.93579	384.28253	584.18829	1691.01184	207.73033	88.89785	1485.83167	196.15846	248.18257	2024.92285	
76	0.750	123.17781	1077.88123	1714.71619	28.26409	1044.98645	1503.58484							-9.22746	1542.76416	1610.37573	274.87759	1561.33447	1651.17969				124.88964	1586.59741	1679.91345	-266.12460	1451.50635	1416.24084	547.18494	999.85779	1464.21387	-337.59793	1490.20105	1111.87866	471.23837	1235.05981	1645.08142				354.93005	1059.38977	1576.48413				97.56084	573.18604	1439.47754	392.37827	583.08313	1668.76465	208.14932	89.23478	1485.41284	203.08096	260.73273	2007.39661	
77	0.760	123.27349	1077.43652	1705.28589	27.43196	1046.78699	1493.69006							-9.37072	1542.84692	1602.68372	275.58560	1561.81665	1640.93823				125.73535	1587.11133	1671.44604	-266.17371	1450.24963	1407.69958	547.76440	1002.67444	1449.87219	-338.90305	1488.25415	1104.16357	472.07562	1236.24585	1632.46875				354.56729	1060.13977	1563.21313				96.81136	573.20728	1431.88831	400.19577	583.56665	1647.28577	208.08963	89.45502	1485.24939	208.63960	273.62653	1991.18494	
